{"glyphs":{"$":{"x_min":0,"x_max":465,"ha":465,"o":"m 207 367 l 219 578 q 179 578 148 546 q 118 515 118 476 q 118 411 207 367 z m 238 268 l 225 24 q 280 24 309 54 q 339 83 339 139 q 339 167 331 189 q 323 211 307 226 q 291 240 276 250 q 260 259 238 268 z m 371 585 q 385 516 388 465 q 381 459 357 459 q 350 481 343 498 q 335 514 324 531 q 312 548 295 559 q 278 570 255 575 l 243 351 q 251 348 267 342 q 283 335 289 333 q 316 321 338 308 q 359 294 378 275 q 396 256 407 229 q 417 203 417 171 q 417 127 393 86 q 370 46 330 21 q 285 -7 223 -9 l 218 -93 q 210 -98 182 -98 l 187 -8 q 157 -6 116 3 q 75 12 48 12 q 39 48 35 75 q 32 101 29 153 q 44 161 59 156 q 72 97 104 65 q 137 34 188 26 l 203 281 q 201 282 195 284 q 189 287 186 288 q 157 301 134 315 q 112 329 92 348 q 72 368 62 394 q 51 420 51 451 q 51 521 100 564 q 149 607 220 610 l 225 689 q 238 694 262 694 l 257 609 q 292 607 322 597 q 353 587 371 585 z"},"<":{"x_min":0,"x_max":550,"ha":550,"o":"m 138 239 l 455 123 q 465 112 465 95 q 465 78 455 73 l 65 215 q 51 237 65 263 l 455 404 q 465 399 465 382 q 465 365 455 354 z"},"'":{"x_min":0,"x_max":190,"ha":190,"o":"m 79 426 q 53 585 53 594 q 53 612 68 628 q 83 644 104 644 q 122 644 131 634 q 139 625 139 611 q 139 604 131 559 l 114 472 l 106 430 z"},"=":{"x_min":0,"x_max":550,"ha":550,"o":"m 464 309 l 75 309 q 69 309 64 314 q 60 319 60 325 q 60 337 68 348 q 76 359 85 359 l 477 359 q 484 359 488 354 q 491 349 491 342 q 491 333 482 321 q 473 309 464 309 z m 464 143 l 75 143 q 69 143 64 148 q 60 153 60 159 q 60 171 68 182 q 76 193 85 193 l 477 193 q 484 193 488 188 q 491 183 491 176 q 491 167 482 155 q 473 143 464 143 z"},"a":{"x_min":0,"x_max":457,"ha":457,"o":"m 293 233 l 214 212 q 119 187 119 102 q 119 75 138 53 q 157 31 191 31 q 225 31 279 74 q 293 85 293 100 z m 293 48 l 291 48 l 271 32 q 238 6 217 -2 q 196 -10 162 -10 q 105 -10 71 16 q 36 42 36 98 q 36 148 82 186 q 127 225 201 243 l 287 264 q 293 266 293 276 q 293 406 212 406 q 179 406 154 395 q 129 385 129 364 q 129 350 131 344 q 134 338 134 326 q 134 314 122 304 q 110 293 90 293 q 55 293 55 328 q 55 354 79 380 q 103 406 142 423 q 180 439 220 439 q 244 439 264 435 q 284 432 305 420 q 325 409 339 391 q 354 373 362 342 q 371 311 371 270 l 371 121 q 371 107 371 99 q 372 90 373 79 q 374 67 376 61 q 379 55 383 48 q 388 42 395 39 q 402 36 411 36 q 420 36 427 40 q 433 44 437 48 q 440 52 442 52 q 445 52 450 46 q 455 40 455 35 q 455 32 445 21 q 434 11 413 1 q 392 -10 370 -10 q 352 -10 337 -4 q 322 2 314 11 q 305 21 300 30 q 295 39 293 48 z"},"L":{"x_min":0,"x_max":526,"ha":526,"o":"m 147 0 q 66 -1 17 -2 q 13 2 13 14 q 13 26 17 31 q 37 32 48 33 q 59 34 70 37 q 82 41 87 46 q 92 52 97 62 q 101 73 103 87 q 104 101 104 122 l 104 523 q 104 555 101 572 q 98 589 86 598 q 75 608 61 610 q 47 612 17 614 q 13 618 13 630 q 13 643 17 647 q 117 645 146 645 q 178 645 276 647 q 280 643 280 630 q 280 618 276 614 q 246 612 232 610 q 218 608 207 598 q 195 589 192 572 q 189 555 189 523 l 189 89 q 189 66 202 52 q 214 39 236 39 l 309 39 q 340 39 365 46 q 390 53 406 64 q 423 76 437 93 q 450 110 458 128 q 466 146 472 170 q 490 173 505 165 q 496 82 479 -2 q 387 0 360 0 z"},"3":{"x_min":0,"x_max":465,"ha":465,"o":"m 215 575 q 203 575 189 572 q 175 569 158 561 q 142 554 131 538 q 120 521 120 499 q 120 447 81 447 q 64 447 56 458 q 47 468 47 481 q 47 490 51 502 q 55 514 63 529 q 71 544 86 558 q 102 572 121 584 q 141 596 171 603 q 201 610 236 610 q 306 610 345 571 q 376 540 376 492 q 376 450 353 418 q 330 386 271 359 l 272 357 q 297 353 319 343 q 342 333 364 316 q 386 298 400 268 q 413 238 413 199 q 413 136 381 87 q 350 39 299 14 q 249 -10 188 -10 q 157 -10 124 -2 q 91 6 68 22 q 44 38 44 57 q 44 69 57 81 q 70 92 86 92 q 111 92 129 66 l 133 59 q 137 54 138 52 q 140 50 144 45 q 147 41 150 39 l 159 33 q 165 30 170 29 q 176 27 184 26 q 192 25 201 25 q 213 25 228 29 q 242 32 260 43 q 278 54 292 71 q 306 88 315 118 q 325 147 325 185 q 325 314 194 314 q 163 314 146 312 l 141 344 q 177 349 207 365 q 238 381 257 401 q 276 421 287 444 q 298 466 298 485 q 298 530 274 553 q 250 575 215 575 z"},"J":{"x_min":0,"x_max":322,"ha":322,"o":"m 226 523 l 226 103 q 226 62 219 27 q 212 -7 203 -29 q 194 -51 178 -73 q 162 -94 152 -104 q 142 -113 124 -129 q 95 -154 68 -163 q 42 -172 7 -172 q -15 -172 -42 -157 q -68 -142 -68 -118 q -68 -103 -52 -89 q -36 -75 -24 -75 q -13 -75 -5 -79 q 3 -83 6 -87 q 9 -90 15 -99 l 21 -109 q 35 -127 56 -127 q 67 -127 78 -123 q 88 -119 100 -105 q 112 -92 121 -70 q 129 -48 135 -10 q 141 29 141 81 l 141 523 q 141 544 140 558 q 138 572 133 583 q 128 593 123 599 q 117 604 104 607 q 92 611 79 612 q 67 613 44 614 q 40 618 40 630 q 40 643 44 647 q 144 645 183 645 q 206 645 303 647 q 308 643 308 630 q 308 618 303 614 q 277 612 265 610 q 253 607 243 598 q 232 589 229 572 q 226 555 226 523 z"},"V":{"x_min":0,"x_max":652,"ha":652,"o":"m 448 614 q 444 618 444 630 q 444 643 448 647 q 542 645 557 645 q 565 645 645 647 q 649 643 649 630 q 649 618 645 614 q 629 612 616 608 q 604 604 594 596 q 584 588 579 583 q 573 577 566 564 q 559 550 556 544 q 554 539 547 521 l 340 11 q 330 -12 316 -12 q 302 -12 293 11 l 96 523 q 87 545 86 548 q 83 555 78 567 q 72 579 70 583 q 67 587 62 594 q 56 601 52 603 l 40 607 q 33 611 25 612 q 17 613 6 614 q 1 618 1 630 q 0 643 5 647 q 99 645 109 645 q 136 645 230 647 q 234 643 234 630 q 234 618 230 614 q 180 609 170 594 q 161 579 179 534 l 338 127 l 343 127 l 501 528 q 508 545 511 557 q 514 569 513 580 q 512 591 505 597 q 498 604 484 608 q 470 612 448 614 z"},"\"":{"x_min":0,"x_max":336,"ha":336,"o":"m 215 427 q 189 586 189 595 q 189 613 204 629 q 219 645 240 645 q 258 645 267 635 q 275 625 275 612 q 275 604 267 559 q 259 514 250 473 l 242 431 z m 89 426 q 63 585 63 594 q 63 612 78 628 q 93 644 114 644 q 132 644 140 634 q 149 625 149 611 q 149 604 141 558 q 133 513 125 472 l 116 430 z"},"7":{"x_min":0,"x_max":465,"ha":465,"o":"m 170 535 q 156 535 146 533 q 135 530 123 522 q 111 514 101 495 q 91 477 83 448 q 68 446 51 451 l 57 489 l 63 534 q 66 549 68 572 q 70 594 71 611 q 71 614 75 614 q 79 613 92 606 q 105 600 125 600 l 331 600 q 371 600 408 611 l 424 599 l 326 350 q 280 227 262 171 l 200 -10 l 132 -13 l 124 -6 q 196 155 349 535 z"},"S":{"x_min":0,"x_max":485,"ha":485,"o":"m 395 631 q 409 558 413 502 q 405 496 380 496 q 373 519 366 535 q 359 552 347 569 q 335 587 320 598 q 305 609 283 617 q 260 624 232 624 q 188 624 156 590 q 123 555 123 512 q 123 489 134 468 q 145 447 159 433 q 174 419 197 406 q 221 393 237 386 q 253 379 277 370 q 301 361 307 358 q 337 345 360 331 q 382 316 402 296 q 422 275 433 247 q 444 218 444 184 q 444 137 419 94 q 394 50 350 23 q 297 -10 227 -10 q 179 -10 127 2 q 75 13 47 13 q 38 51 34 80 q 30 108 27 165 q 43 173 60 168 q 91 26 235 26 q 295 26 327 57 q 360 89 360 149 q 360 170 355 188 q 351 206 343 219 q 336 231 324 243 q 312 255 302 262 q 291 270 275 277 q 259 285 248 290 l 220 300 q 204 306 195 310 q 164 324 140 339 q 116 354 94 375 q 73 396 62 423 q 51 451 51 485 q 51 562 107 610 q 163 658 241 658 q 284 658 309 653 q 333 648 354 641 q 374 634 395 631 z"},"}":{"x_min":0,"x_max":277,"ha":277,"o":"m 95 -58 l 87 108 q 84 170 110 200 q 136 229 192 245 l 192 249 q 137 272 110 306 q 84 340 87 399 l 95 548 q 98 608 74 645 q 50 682 15 682 q 11 687 11 694 q 11 702 15 706 q 55 706 83 699 q 110 691 130 673 q 151 655 160 623 q 168 591 167 543 l 161 373 q 158 271 259 259 q 271 247 259 235 q 208 230 184 198 q 161 167 161 124 l 167 -60 q 168 -102 158 -131 q 147 -162 126 -179 q 105 -196 78 -205 q 50 -213 15 -213 q 11 -208 11 -201 q 11 -193 15 -189 q 30 -185 39 -181 q 48 -177 61 -168 q 74 -158 81 -146 q 87 -133 92 -110 q 97 -88 95 -58 z"},"Z":{"x_min":0,"x_max":604,"ha":604,"o":"m 551 -2 q 451 0 424 0 l 60 0 q 41 0 41 15 q 41 28 49 38 l 248 324 q 368 490 438 579 q 446 590 446 597 q 446 606 436 606 l 225 602 q 170 601 138 575 q 107 549 91 496 q 77 496 61 501 q 79 594 83 653 q 182 645 264 645 l 485 645 q 502 645 528 646 q 554 647 558 647 q 571 647 571 636 q 571 627 566 619 q 562 611 547 591 q 402 404 172 72 q 164 58 164 52 q 164 38 189 38 l 382 42 q 405 42 424 47 q 443 51 457 56 q 470 61 483 72 q 496 83 503 91 q 511 99 520 115 q 529 131 533 141 q 538 150 547 170 q 561 170 578 165 q 558 79 551 -2 z"},"x":{"x_min":0,"x_max":490,"ha":490,"o":"m 182 358 l 243 268 q 248 262 252 260 q 256 259 258 261 q 259 263 262 266 l 327 357 q 332 364 335 369 q 338 374 338 378 q 339 382 340 385 q 340 387 337 389 q 333 392 332 393 q 331 394 324 395 q 317 396 315 396 q 312 396 303 398 q 299 402 299 415 q 299 427 303 431 q 377 429 387 429 q 410 429 460 431 q 464 427 464 415 q 464 402 460 398 q 429 396 409 385 q 389 375 363 343 l 279 236 q 274 229 279 221 l 369 94 q 385 72 396 61 q 409 47 422 42 q 434 36 442 34 q 449 33 464 31 q 467 31 469 31 q 474 26 474 14 q 474 2 469 -2 q 395 0 385 0 q 355 0 281 -2 q 276 2 276 14 q 276 26 281 31 l 290 32 q 296 33 298 33 q 300 34 305 35 q 309 36 310 37 l 313 40 q 315 42 315 45 q 314 47 313 51 q 313 55 310 60 l 303 70 l 294 84 l 236 164 q 231 169 229 170 q 226 171 224 170 q 222 168 218 162 l 155 71 q 147 60 146 52 q 144 45 148 41 q 153 37 159 34 q 165 32 177 31 q 181 26 181 14 q 181 2 177 -2 q 103 0 93 0 q 77 0 68 0 q 59 0 47 -1 q 35 -1 21 -2 q 17 2 17 14 q 17 26 21 31 q 35 32 41 32 q 47 33 58 36 q 69 39 76 44 q 84 50 95 60 q 106 71 118 87 l 202 195 q 207 201 201 210 l 114 337 q 75 394 24 398 q 20 402 20 415 q 20 427 24 431 q 98 429 110 429 q 137 429 211 431 q 215 427 215 415 q 215 402 211 398 q 206 397 198 396 q 189 396 187 395 q 184 395 179 393 q 174 392 173 391 q 172 391 170 388 q 168 386 169 384 q 169 381 171 377 q 172 374 175 369 z"},")":{"x_min":0,"x_max":298,"ha":298,"o":"m 254 252 q 254 118 195 -2 q 136 -123 42 -203 q 26 -202 21 -185 q 31 -174 40 -163 q 48 -152 65 -129 q 81 -105 94 -81 q 107 -56 122 -19 q 137 18 147 57 q 157 96 164 147 q 171 198 171 252 q 171 326 158 395 q 145 464 128 509 q 112 554 87 596 q 63 639 50 656 q 37 673 21 691 q 26 705 42 708 q 84 671 119 628 q 153 585 175 547 q 197 509 213 467 q 229 425 236 394 q 244 363 248 330 q 252 297 253 282 q 254 267 254 252 z"},"&":{"x_min":0,"x_max":705,"ha":705,"o":"m 250 338 q 177 297 151 255 q 125 213 125 156 q 125 87 158 55 q 190 23 242 23 q 292 23 325 47 q 357 70 398 126 q 357 179 308 250 q 259 321 250 338 z m 421 94 q 384 43 340 17 q 295 -10 235 -10 q 193 -10 160 -1 q 126 8 99 27 q 72 46 58 79 q 43 111 43 156 q 43 216 87 268 q 130 321 228 376 q 200 424 188 456 q 177 488 177 517 q 177 540 187 562 q 197 585 216 604 q 235 623 265 635 q 295 647 331 647 q 384 647 422 616 q 459 585 459 539 q 459 500 417 454 q 375 409 310 371 l 314 363 q 345 310 436 187 q 476 246 513 315 q 523 333 528 345 q 533 357 534 365 q 534 374 532 379 q 530 384 522 387 q 515 390 506 391 q 498 392 482 393 q 478 397 478 409 q 478 421 482 426 q 522 424 577 424 q 621 424 661 426 q 666 421 666 409 q 666 397 661 393 q 636 392 624 389 q 612 387 598 376 q 585 366 575 351 q 566 335 547 302 q 497 213 458 157 l 494 107 q 516 77 537 60 q 558 44 571 44 q 596 44 614 57 q 632 69 647 98 q 658 98 668 88 q 652 39 623 15 q 594 -10 565 -10 q 550 -10 540 -8 q 530 -7 514 -1 q 499 5 483 20 q 467 34 450 57 z m 289 409 q 336 440 363 476 q 390 511 390 539 q 390 573 373 594 q 356 614 326 614 q 302 614 276 589 q 251 563 251 519 q 251 481 289 409 z"},"_":{"x_min":0,"x_max":486,"ha":486,"o":"m 476 -110 q 482 -116 482 -132 q 482 -148 476 -154 l 10 -154 q 4 -148 4 -132 q 4 -116 10 -110 z"},"v":{"x_min":0,"x_max":497,"ha":497,"o":"m 325 398 q 321 402 321 415 q 321 427 325 431 q 399 429 421 429 q 443 429 487 431 q 491 427 491 415 q 491 402 487 398 q 466 396 453 391 q 439 386 430 375 q 420 364 415 354 q 410 345 401 324 l 268 11 q 258 -12 244 -12 q 234 -12 229 -8 q 224 -3 219 9 l 91 325 q 75 365 69 373 q 57 391 25 396 q 19 397 11 398 q 7 402 7 415 q 7 427 11 431 q 85 429 99 429 q 131 429 205 431 q 209 427 209 415 q 209 402 205 398 q 196 397 188 396 l 176 394 q 171 393 168 390 q 165 388 162 386 q 160 384 159 380 q 159 376 159 374 q 159 372 161 365 q 163 359 164 356 l 169 344 l 174 331 l 246 138 q 254 116 260 110 q 265 104 270 109 q 275 114 283 135 l 364 331 q 380 369 373 382 q 365 395 325 398 z"},"O":{"x_min":0,"x_max":702,"ha":702,"o":"m 331 624 q 295 624 261 607 q 228 589 198 555 q 169 521 151 461 q 133 402 133 327 q 133 257 153 199 q 172 141 206 103 q 239 65 281 45 q 324 24 370 24 q 458 24 514 101 q 570 179 570 310 q 570 384 551 444 q 532 504 500 543 q 467 582 424 603 q 381 624 331 624 z m 666 329 q 666 205 604 116 q 562 57 497 23 q 432 -10 350 -10 q 287 -10 229 13 q 172 36 130 76 q 87 117 62 177 q 37 238 37 310 q 37 442 105 536 q 147 594 209 626 q 271 658 344 658 q 435 658 507 620 q 580 581 623 505 q 666 430 666 329 z"},"(":{"x_min":0,"x_max":298,"ha":298,"o":"m 44 252 q 44 386 103 506 q 162 626 256 707 q 271 706 277 689 q 267 678 258 667 q 250 656 233 633 q 217 609 204 584 q 191 560 176 523 q 161 486 151 447 q 141 408 134 357 q 127 306 127 252 q 127 178 140 109 q 153 40 169 -5 q 186 -50 210 -92 q 235 -135 248 -152 q 261 -169 277 -187 q 271 -201 256 -204 q 213 -167 179 -124 q 145 -81 123 -43 q 101 -5 85 37 q 69 79 62 110 q 54 141 50 174 q 45 207 45 222 q 44 237 44 252 z"},"C":{"x_min":0,"x_max":646,"ha":646,"o":"m 357 -10 q 294 -10 241 9 q 188 27 151 58 q 114 89 88 131 q 62 173 50 219 q 37 266 37 315 q 37 393 65 460 q 93 527 143 573 q 236 658 358 658 q 412 658 455 648 q 498 638 528 626 q 559 615 577 613 q 595 500 599 458 q 581 448 566 453 q 555 488 540 516 q 524 544 499 569 q 474 594 436 607 q 397 621 347 621 q 307 621 265 599 q 224 577 188 532 q 128 459 128 334 q 128 290 137 247 q 146 204 164 164 q 182 125 208 95 q 235 66 273 48 q 311 31 356 31 q 426 31 480 56 q 535 82 588 140 q 603 140 611 125 q 560 59 495 24 q 430 -10 357 -10 z"},"W":{"x_min":0,"x_max":954,"ha":954,"o":"m 815 565 q 818 574 818 581 q 818 588 816 593 q 813 598 808 601 q 802 604 797 607 q 792 609 782 610 q 773 612 767 612 q 760 613 749 614 q 745 618 745 630 q 745 643 749 647 q 829 645 859 645 q 872 645 946 647 q 950 643 950 630 q 950 618 946 614 q 907 612 889 597 q 871 582 860 553 l 663 11 q 656 -12 636 -12 q 613 -12 605 12 l 488 367 q 479 395 474 395 q 468 395 460 370 l 321 12 q 312 -12 293 -12 q 270 -12 262 12 l 80 556 q 73 577 67 587 q 62 598 52 604 q 43 610 34 611 q 26 612 6 614 q 1 618 1 630 q 1 643 6 647 q 86 645 99 645 q 146 645 212 647 q 216 643 216 630 q 216 618 212 614 q 202 613 195 613 q 188 612 181 610 q 173 608 170 605 q 166 603 162 598 q 159 593 160 587 l 162 572 l 312 111 l 314 111 l 440 442 q 447 460 447 480 q 447 493 442 508 l 427 554 q 419 577 398 595 q 376 612 340 614 q 335 618 335 630 q 335 643 340 647 q 420 645 440 645 q 468 645 562 647 q 566 643 566 630 q 566 618 562 614 q 550 613 545 612 q 539 611 530 609 q 521 607 516 603 q 512 599 508 593 q 504 587 505 577 q 505 568 510 554 l 654 109 l 656 109 z"},"A":{"x_min":0,"x_max":695,"ha":695,"o":"m 263 283 l 440 283 l 346 555 l 340 555 l 238 296 q 235 289 241 286 q 247 283 263 283 z m 155 79 q 152 72 152 65 q 151 59 154 54 q 156 50 160 46 q 164 43 170 41 q 176 38 181 36 q 187 35 195 33 q 204 32 210 32 q 216 31 224 31 q 229 26 229 14 q 229 2 224 -2 q 150 0 96 0 q 81 0 7 -2 q 2 2 2 14 q 2 26 7 31 q 45 33 67 46 q 89 60 107 102 l 334 638 q 354 638 389 658 l 595 86 q 600 74 605 65 q 610 56 619 50 l 632 41 q 637 37 649 35 q 662 33 666 33 q 670 32 685 31 q 689 26 689 14 q 689 2 685 -2 q 611 0 571 0 q 514 0 440 -2 q 436 2 436 14 q 436 26 440 31 q 446 31 455 32 q 465 32 470 33 l 483 34 q 491 35 495 36 q 499 37 504 39 q 510 41 512 44 q 514 46 516 50 q 518 54 517 60 q 517 65 514 72 l 456 241 l 245 241 q 228 241 221 238 q 214 234 210 224 z"},"f":{"x_min":0,"x_max":310,"ha":310,"o":"m 175 122 q 175 100 176 87 q 177 73 181 62 q 185 52 189 47 q 193 42 203 38 q 214 34 224 33 q 234 32 254 31 q 258 26 258 14 q 258 2 254 -2 q 168 0 136 0 q 115 0 31 -2 q 26 2 26 14 q 26 26 31 31 q 49 32 59 34 q 68 36 77 41 q 86 45 89 55 q 92 65 94 81 q 96 96 96 122 l 96 390 l 27 390 q 22 390 22 396 l 22 409 q 22 417 27 423 q 33 429 45 429 l 96 429 l 96 469 q 96 525 112 570 q 127 615 153 643 q 179 670 210 684 q 241 698 273 698 q 304 698 324 694 q 345 689 363 677 q 395 652 395 626 q 395 611 381 598 q 367 585 354 585 q 328 585 314 617 q 303 643 290 654 q 276 664 254 664 q 175 664 175 486 l 175 429 l 283 429 q 291 429 291 423 l 291 403 q 291 397 283 394 q 276 390 268 390 l 175 390 z"},"Q":{"x_min":0,"x_max":702,"ha":702,"o":"m 331 624 q 295 624 261 607 q 228 589 198 555 q 169 521 151 461 q 133 402 133 327 q 133 257 153 199 q 172 141 206 103 q 239 65 281 45 q 324 24 370 24 q 458 24 514 101 q 570 179 570 310 q 570 384 551 444 q 532 504 500 543 q 467 582 424 603 q 381 624 331 624 z m 666 329 q 666 204 604 116 q 533 16 409 -5 q 344 -24 278 -71 q 289 -70 298 -70 q 334 -70 375 -83 q 416 -96 446 -111 q 476 -126 512 -139 q 548 -152 577 -152 q 601 -152 625 -143 q 649 -134 664 -115 l 681 -127 q 651 -170 617 -189 q 583 -209 537 -209 q 501 -209 467 -199 q 433 -189 406 -175 l 355 -147 q 330 -133 303 -124 q 276 -114 251 -114 q 235 -114 216 -126 q 196 -148 178 -173 l 139 -153 q 146 -142 157 -130 q 186 -96 225 -63 q 265 -31 309 -8 q 192 6 115 92 q 37 178 37 310 q 37 442 105 536 q 147 594 209 626 q 271 658 344 658 q 435 658 507 620 q 580 581 623 505 q 666 430 666 329 z"},"w":{"x_min":0,"x_max":747,"ha":747,"o":"m 203 398 q 168 396 163 381 q 158 367 173 331 l 253 125 q 263 101 267 101 q 271 102 281 127 l 351 304 l 345 320 q 328 361 321 371 q 304 395 268 398 q 264 402 264 415 q 264 427 268 431 q 342 429 356 429 q 382 429 456 431 q 460 427 460 415 q 460 402 456 398 q 417 395 411 384 q 405 372 419 337 l 506 118 q 508 114 509 111 q 510 107 511 105 q 513 103 514 102 l 516 100 q 516 99 517 100 q 518 101 519 102 q 520 102 521 105 q 522 108 523 109 q 523 111 525 115 l 528 122 l 612 330 q 617 344 619 351 q 622 358 622 368 q 622 377 616 383 q 610 388 596 393 q 583 397 561 398 q 557 402 557 415 q 557 427 561 431 q 635 429 665 429 q 685 429 735 431 q 739 427 739 415 q 739 402 735 398 q 700 396 682 379 q 665 361 650 326 l 520 9 q 512 -12 497 -12 q 481 -12 473 8 l 370 256 l 269 10 q 260 -12 245 -12 q 229 -12 221 8 l 90 331 q 74 371 61 382 q 46 395 11 398 q 7 402 7 415 q 7 427 11 431 q 64 429 99 429 q 129 429 203 431 q 208 427 208 415 q 208 402 203 398 z"},"-":{"x_min":0,"x_max":338,"ha":338,"o":"m 271 223 l 55 223 q 49 223 44 229 q 40 235 40 242 q 40 256 48 270 q 56 283 65 283 l 284 283 q 298 283 298 263 q 298 253 289 238 q 280 223 271 223 z"},"E":{"x_min":0,"x_max":549,"ha":549,"o":"m 273 361 q 295 361 309 362 q 323 363 333 366 q 344 370 349 374 q 354 378 358 387 q 361 396 362 405 q 363 413 364 429 q 368 434 380 434 q 393 434 397 429 q 395 370 395 343 q 395 325 397 255 q 393 250 380 250 q 368 250 364 255 q 363 271 361 280 q 360 288 355 298 q 350 308 341 312 q 332 317 315 320 q 298 323 273 323 l 182 323 l 182 82 q 182 62 192 51 q 201 39 218 39 l 354 39 q 407 39 437 74 q 468 109 485 170 q 503 175 520 165 q 508 85 483 -2 q 403 0 355 0 l 140 0 q 59 -1 10 -2 q 5 2 5 14 q 5 26 10 31 q 30 32 41 33 q 52 34 63 37 q 75 41 80 46 q 85 52 90 62 q 94 72 96 86 q 97 101 97 122 l 97 523 q 97 548 94 564 q 92 580 87 590 q 82 600 70 604 q 58 609 46 611 q 34 613 10 614 q 5 618 5 630 q 5 643 10 647 l 139 645 l 394 645 q 420 645 443 649 q 447 649 447 646 q 449 639 457 584 q 466 529 469 501 q 454 493 436 496 q 430 517 425 528 q 421 540 414 554 q 407 569 399 577 q 392 584 381 592 q 370 599 356 602 q 342 605 323 605 l 218 605 q 201 605 191 593 q 182 580 182 561 l 182 361 z"},"s":{"x_min":0,"x_max":390,"ha":390,"o":"m 48 138 q 52 143 63 143 q 75 144 79 139 q 84 118 87 107 q 89 97 98 77 q 107 57 118 47 q 139 23 189 23 q 221 23 248 41 q 274 59 274 93 q 274 125 253 146 q 233 165 172 191 q 111 216 87 245 q 62 274 62 327 q 62 374 104 406 q 146 439 203 439 q 226 439 250 436 q 275 432 301 427 q 327 421 334 420 q 333 407 331 370 q 328 334 328 314 q 324 310 312 309 q 300 309 296 313 q 292 337 283 355 q 274 373 264 382 q 254 392 241 397 q 229 403 220 404 q 211 406 203 406 q 175 406 154 388 q 133 371 133 342 q 133 330 135 320 q 138 311 142 303 q 145 296 154 289 q 162 282 168 278 q 174 274 187 268 q 201 262 208 259 l 233 249 q 289 228 319 196 q 350 165 350 116 q 350 88 339 65 q 328 42 310 29 q 293 15 271 6 q 249 -3 229 -6 q 209 -10 191 -10 q 142 -10 100 1 q 93 3 80 3 q 70 3 55 0 q 55 46 48 138 z"},">":{"x_min":0,"x_max":550,"ha":550,"o":"m 412 236 l 95 352 q 85 363 85 380 q 85 397 95 402 l 485 260 q 499 238 485 212 l 95 71 q 85 75 85 93 q 85 110 95 121 z"},"l":{"x_min":0,"x_max":264,"ha":264,"o":"m 95 122 l 95 559 q 95 579 94 592 q 94 605 90 615 q 87 624 84 629 q 82 633 73 636 q 65 639 60 639 q 54 640 40 641 q 34 641 31 641 q 26 646 25 655 q 23 665 25 671 q 55 673 101 682 q 146 691 165 698 q 178 698 178 688 q 174 648 174 583 l 174 122 q 174 90 176 73 q 178 56 188 46 q 197 37 208 34 q 220 32 246 31 q 250 26 250 14 q 250 2 246 -2 q 160 0 135 0 q 107 0 23 -2 q 19 2 19 14 q 19 26 23 31 q 49 32 61 34 q 72 37 82 46 q 91 56 93 73 q 95 90 95 122 z"},"8":{"x_min":0,"x_max":465,"ha":465,"o":"m 234 575 q 190 575 166 551 q 142 527 142 491 q 142 463 156 438 q 169 414 212 386 l 243 367 q 323 427 323 486 q 323 524 301 550 q 279 575 234 575 z m 393 485 q 393 462 381 440 q 369 417 349 400 q 329 382 309 369 q 290 356 270 346 l 341 303 q 419 256 419 162 q 419 133 406 103 q 394 73 371 48 q 348 22 309 6 q 271 -10 224 -10 q 143 -10 94 31 q 46 71 46 146 q 46 215 104 266 q 136 294 185 321 l 159 337 q 113 366 92 398 q 71 430 71 472 q 71 531 117 571 q 164 610 239 610 q 311 610 352 575 q 393 540 393 485 z m 226 25 q 241 25 256 27 q 271 30 288 37 q 305 45 317 57 q 330 70 338 92 q 346 113 346 142 q 346 221 259 275 l 212 303 q 188 287 169 268 q 150 249 140 232 q 129 215 123 198 q 117 180 115 168 q 113 157 113 146 q 113 114 124 90 q 135 65 153 52 q 170 38 189 31 q 208 25 226 25 z"},"\\":{"x_min":0,"x_max":287,"ha":287,"o":"m 55 698 l 285 -48 l 241 -48 l 11 698 z"},"e":{"x_min":0,"x_max":447,"ha":447,"o":"m 124 282 l 305 285 q 320 285 320 299 q 320 329 312 350 q 305 372 292 383 q 280 394 266 399 q 252 404 237 404 q 227 404 218 402 q 208 400 193 393 q 177 386 165 374 q 152 362 141 338 q 129 314 124 282 z m 386 93 q 403 91 407 77 q 340 -10 237 -10 q 139 -10 84 54 q 37 108 37 202 q 37 246 50 285 q 62 323 83 351 q 103 378 129 398 q 155 418 183 427 q 210 437 237 437 q 406 437 406 263 q 406 246 387 246 l 121 248 q 121 164 153 111 q 175 75 204 57 q 233 39 262 39 q 304 39 331 51 q 357 63 386 93 z"},"b":{"x_min":0,"x_max":493,"ha":493,"o":"m 174 363 q 164 354 161 345 q 157 336 157 321 l 157 71 q 175 48 192 36 q 208 24 229 24 q 298 24 334 79 q 370 135 370 224 q 370 296 338 346 q 305 395 259 395 q 210 395 174 363 z m 167 394 q 217 439 279 439 q 312 439 343 425 q 375 411 400 386 q 425 362 441 324 q 456 286 456 242 q 456 185 436 136 q 416 87 384 56 q 352 25 313 8 q 274 -10 235 -10 q 177 -10 147 15 q 139 21 133 21 q 127 21 120 12 q 112 3 96 -12 q 82 -12 74 0 q 78 19 78 71 l 78 559 q 78 576 77 588 q 76 600 75 609 q 74 618 70 624 l 63 632 q 61 636 53 637 q 45 639 40 640 q 35 640 23 641 q 18 641 14 641 q 10 646 8 655 q 6 665 8 671 q 38 673 84 682 q 129 691 148 698 q 161 698 161 688 q 157 648 157 583 l 157 399 q 157 385 167 394 z"},"%":{"x_min":0,"x_max":637,"ha":637,"o":"m 433 83 q 433 48 446 33 q 459 19 477 19 q 503 19 524 44 q 545 69 555 102 q 565 134 565 164 q 565 198 552 212 q 538 225 523 225 q 500 225 479 202 q 457 178 445 145 q 433 112 433 83 z m 378 98 q 378 161 418 208 q 458 256 512 256 q 529 256 543 252 q 557 248 570 238 q 583 229 591 210 q 598 191 598 165 q 598 139 590 109 q 581 79 566 52 q 551 24 526 6 q 500 -12 471 -12 q 428 -12 403 21 q 378 55 378 98 z m 364 521 q 404 521 449 534 q 494 547 514 575 l 546 559 l 136 -12 l 102 3 l 461 503 q 413 484 354 484 q 336 484 312 490 q 288 497 274 505 q 277 495 277 480 q 277 455 268 425 q 260 396 245 368 q 229 340 204 322 q 179 303 149 303 q 105 303 81 336 q 57 370 57 412 q 57 478 96 524 q 136 571 190 571 q 210 571 229 563 q 249 556 257 546 q 311 521 364 521 z m 111 398 q 111 363 124 349 q 138 334 155 334 q 181 334 202 358 q 223 383 234 416 q 244 449 244 479 q 244 513 231 526 q 218 540 201 540 q 178 540 157 517 q 135 493 123 460 q 111 427 111 398 z"},"m":{"x_min":0,"x_max":790,"ha":790,"o":"m 173 358 q 173 354 173 352 q 174 350 175 351 q 176 352 177 353 q 178 354 180 355 q 182 357 182 358 q 261 439 334 439 q 372 439 399 418 q 426 397 434 366 q 437 355 445 365 q 515 439 610 439 q 636 439 654 431 q 673 422 684 409 q 695 395 702 374 q 708 353 711 331 q 713 309 713 280 l 713 122 q 713 101 714 87 q 714 74 717 63 q 720 52 724 47 q 728 42 736 38 q 744 34 753 33 q 761 32 777 31 q 780 26 780 14 q 780 2 777 -2 q 691 0 674 0 q 656 0 572 -2 q 568 2 568 14 q 568 26 572 31 q 601 33 612 38 q 623 44 628 62 q 634 80 634 122 l 634 298 q 634 346 619 367 q 604 387 574 387 q 501 387 442 321 q 443 309 443 281 l 443 122 q 443 96 445 81 q 446 66 449 56 q 452 45 460 41 q 468 36 476 34 q 485 32 502 31 q 506 26 506 14 q 506 2 502 -2 q 416 0 404 0 q 386 0 302 -2 q 298 2 298 14 q 298 26 302 31 q 320 32 329 34 q 338 36 347 41 q 355 45 358 56 q 361 66 362 81 q 364 96 364 122 l 364 296 q 364 387 298 387 q 250 387 190 328 q 173 309 173 286 l 173 122 q 173 90 175 74 q 176 57 184 48 q 192 38 202 35 q 211 33 233 31 q 237 26 237 14 q 237 2 233 -2 q 149 0 134 0 q 108 0 26 -2 q 21 2 21 14 q 21 26 26 31 q 49 32 60 35 q 71 38 80 47 q 89 57 92 74 q 94 91 94 122 l 94 317 q 94 339 92 351 q 90 363 82 371 q 73 378 62 380 q 52 383 29 385 q 27 390 26 399 q 25 408 27 413 q 107 423 153 442 q 162 442 165 434 q 173 417 173 358 z"},"#":{"x_min":0,"x_max":465,"ha":465,"o":"m 279 245 l 297 360 l 184 360 l 165 245 z m 335 360 l 316 245 l 411 245 l 404 192 l 310 192 l 280 14 l 242 14 l 269 192 l 157 192 l 128 14 l 91 14 l 119 192 l 26 192 l 34 245 l 128 245 l 146 360 l 53 360 l 61 413 l 154 413 l 183 592 l 221 592 l 191 413 l 305 413 l 333 592 l 371 592 l 342 413 l 438 413 l 430 360 z"},",":{"x_min":0,"x_max":220,"ha":220,"o":"m 104 95 q 134 95 152 68 q 170 41 170 -4 q 170 -54 135 -89 q 100 -124 52 -133 q 43 -124 43 -109 q 79 -100 105 -73 q 131 -47 131 -29 q 131 -1 95 2 q 51 9 51 46 q 51 67 66 81 q 81 95 104 95 z"},"n":{"x_min":0,"x_max":542,"ha":542,"o":"m 184 358 q 226 405 266 422 q 306 439 348 439 q 405 439 431 405 q 447 383 452 351 q 458 318 458 271 l 458 122 q 458 104 459 92 q 460 79 461 69 q 463 59 467 53 q 471 47 475 43 q 479 39 487 37 q 496 34 503 33 q 511 32 525 31 q 528 26 528 14 q 528 2 525 -2 q 439 0 419 0 q 401 0 317 -2 q 313 2 313 14 q 313 26 317 31 q 339 33 349 35 q 359 38 367 48 q 375 57 377 74 q 379 90 379 122 l 379 274 q 379 327 367 351 q 358 368 344 378 q 329 387 314 387 q 285 387 253 372 q 221 356 192 328 q 175 309 175 286 l 175 122 q 175 90 177 74 q 178 57 186 48 q 194 38 204 35 q 213 33 235 31 q 239 26 239 14 q 239 2 235 -2 q 151 0 136 0 q 108 0 26 -2 q 21 2 21 14 q 21 26 26 31 q 43 32 52 33 q 61 35 71 38 q 80 42 84 47 q 87 53 91 63 q 95 74 95 87 q 96 101 96 122 l 96 317 q 96 339 94 351 q 92 363 83 371 q 75 378 64 380 q 54 383 31 385 q 29 390 28 399 q 27 408 29 413 q 109 423 155 442 q 164 442 167 434 q 175 417 175 358 q 175 345 183 356 q 184 357 184 358 z"},"h":{"x_min":0,"x_max":538,"ha":538,"o":"m 167 286 l 167 122 q 167 100 168 87 q 168 73 171 62 q 174 52 177 47 q 181 42 189 38 q 197 34 204 33 q 212 32 227 31 q 231 26 231 14 q 231 2 227 -2 q 143 0 128 0 q 100 0 18 -2 q 14 2 14 14 q 14 26 18 31 q 35 32 43 33 q 52 34 62 38 q 71 42 75 47 q 79 52 83 62 q 86 73 87 87 q 88 101 88 122 l 88 559 q 88 576 87 588 q 86 600 85 609 q 84 618 80 624 l 73 632 q 71 636 63 637 q 55 639 50 640 q 45 640 33 641 q 27 641 24 641 q 20 646 18 655 q 17 665 18 671 q 48 673 94 682 q 140 691 158 698 q 171 698 171 688 q 167 651 167 583 l 166 358 q 166 346 174 356 q 175 357 176 358 q 249 439 346 439 q 403 439 429 405 q 445 384 451 352 q 456 319 456 271 l 456 122 q 456 104 457 92 q 458 79 459 69 q 461 59 465 53 q 469 47 473 43 q 477 39 485 37 q 494 34 501 33 q 509 32 523 31 q 526 26 526 14 q 526 2 523 -2 q 437 0 417 0 q 399 0 315 -2 q 312 2 312 14 q 312 26 315 31 q 337 33 347 35 q 357 38 365 48 q 373 57 375 74 q 377 90 377 122 l 377 274 q 377 327 365 351 q 356 368 342 378 q 328 387 312 387 q 282 387 247 371 q 212 355 184 328 q 167 309 167 286 z"},"z":{"x_min":0,"x_max":424,"ha":424,"o":"m 71 439 q 76 438 85 435 q 95 432 105 431 q 115 429 130 429 l 313 429 q 326 429 340 430 q 354 430 364 431 q 374 431 375 431 q 380 431 384 429 q 387 427 387 424 q 387 417 369 387 q 318 304 250 202 q 181 101 129 34 l 262 34 q 300 35 320 51 q 339 67 360 110 l 374 139 q 394 139 404 133 q 394 57 372 -3 l 60 0 q 37 0 37 12 q 37 21 46 32 q 195 233 292 395 l 164 392 q 108 391 83 301 q 65 297 50 304 q 64 394 65 433 q 65 435 67 437 q 69 439 71 439 z"},"B":{"x_min":0,"x_max":588,"ha":588,"o":"m 191 570 l 191 366 l 265 366 q 407 366 407 481 q 407 517 395 544 q 383 571 363 585 q 343 600 322 606 q 301 613 278 613 q 256 613 241 612 q 227 611 217 609 q 207 606 202 604 q 197 602 194 595 q 192 589 191 585 q 191 580 191 570 z m 191 332 l 191 98 q 191 68 209 50 q 227 31 274 31 q 311 31 340 35 q 369 40 388 49 q 408 59 421 70 q 434 82 441 98 q 448 114 451 130 q 454 146 454 165 q 454 238 406 285 q 357 332 260 332 z m 148 645 q 170 645 213 646 q 256 647 273 647 q 488 647 488 493 q 488 454 460 418 q 433 382 393 362 l 393 360 q 463 340 505 296 q 547 252 547 184 q 547 157 540 132 q 533 106 515 82 q 498 57 470 39 q 442 21 397 9 q 353 -2 295 -2 q 245 -2 205 -1 q 165 0 149 0 q 117 0 19 -2 q 15 2 15 14 q 15 26 19 31 q 39 32 50 33 q 61 34 72 37 q 83 41 89 46 q 94 52 99 62 q 103 73 104 87 q 106 101 106 122 l 106 523 q 106 555 103 572 q 100 589 88 598 q 77 608 63 610 q 49 612 19 614 q 15 618 15 630 q 15 643 19 647 q 119 645 148 645 z"},"K":{"x_min":0,"x_max":637,"ha":637,"o":"m 191 122 q 191 101 192 87 q 194 73 198 62 q 203 52 208 46 q 213 41 225 37 q 236 34 247 33 q 258 32 278 31 q 282 26 282 14 q 282 2 278 -2 q 178 0 149 0 q 117 0 19 -2 q 15 2 15 14 q 15 26 19 31 q 39 32 50 33 q 61 34 72 37 q 83 41 89 46 q 94 52 99 62 q 103 73 104 87 q 106 101 106 122 l 106 523 q 106 555 103 572 q 100 589 88 598 q 77 608 63 610 q 49 612 19 614 q 15 618 15 630 q 15 643 19 647 q 119 645 148 645 q 180 645 278 647 q 282 643 282 630 q 282 618 278 614 q 248 612 234 610 q 220 608 209 598 q 197 589 194 572 q 191 555 191 523 l 191 347 q 236 351 270 386 l 435 562 q 444 571 448 579 q 453 586 455 592 q 456 597 453 600 q 450 604 447 606 q 444 608 436 610 q 428 612 423 612 q 418 613 407 614 q 403 618 403 630 q 403 643 407 647 q 501 645 520 645 q 521 645 615 647 q 620 643 620 630 q 620 618 615 614 q 569 608 551 601 q 518 589 489 558 l 342 407 q 326 391 318 380 q 310 370 308 366 q 307 362 307 358 q 307 348 320 333 l 539 73 q 547 63 556 56 q 565 48 573 44 q 580 41 589 37 q 599 34 603 33 q 607 33 617 32 q 626 31 627 31 q 631 26 631 14 q 631 2 627 -2 q 533 0 526 0 q 512 0 472 -2 q 468 -2 467 4 q 465 17 456 36 q 446 55 431 73 l 274 271 q 245 308 191 309 z"},"R":{"x_min":0,"x_max":587,"ha":587,"o":"m 272 618 q 189 618 189 554 l 189 325 l 237 325 q 276 325 304 332 q 333 338 357 354 q 380 371 393 402 q 405 433 405 478 q 405 618 272 618 z m 189 122 q 189 101 190 87 q 192 73 196 62 q 201 52 206 46 q 211 41 223 37 q 234 34 245 33 q 256 32 276 31 q 280 26 280 14 q 280 2 276 -2 q 176 0 147 0 q 115 0 17 -2 q 13 2 13 14 q 13 26 17 31 q 37 32 48 33 q 59 34 70 37 q 82 41 87 46 q 92 52 97 62 q 101 73 103 87 q 104 101 104 122 l 104 523 q 104 555 101 572 q 98 589 86 598 q 75 608 61 610 q 47 612 17 614 q 13 618 13 630 q 13 643 17 647 q 117 645 146 645 q 167 645 213 648 q 260 652 271 652 q 331 652 371 643 q 412 634 444 604 q 497 554 497 479 q 497 442 483 410 q 468 379 446 359 q 424 339 403 327 q 383 314 364 308 l 490 98 q 514 59 534 40 q 555 21 586 21 q 592 8 587 -3 q 573 -10 545 -10 q 468 -10 413 79 l 306 253 q 298 266 288 273 q 278 281 254 286 q 229 291 189 291 z"},"T":{"x_min":0,"x_max":597,"ha":597,"o":"m 350 122 q 350 101 351 87 q 353 73 357 62 q 362 52 368 46 q 374 41 386 37 q 399 34 411 33 q 424 32 447 31 q 451 26 451 14 q 451 2 447 -2 q 347 0 308 0 q 266 0 168 -2 q 164 2 164 14 q 164 26 168 31 q 191 32 203 33 q 216 34 229 37 q 241 41 247 46 q 252 52 257 62 q 262 73 264 87 q 265 101 265 122 l 265 507 q 265 556 255 581 q 244 606 218 606 l 169 606 q 117 606 84 582 q 51 558 37 500 q 15 500 3 505 q 22 588 28 650 q 28 653 32 653 q 134 645 265 645 l 351 645 q 484 645 575 653 q 576 653 577 652 q 578 650 578 650 q 580 583 591 508 q 580 503 557 503 q 545 559 511 583 q 477 606 418 606 l 396 606 q 370 606 360 581 q 350 555 350 504 z"},"P":{"x_min":0,"x_max":531,"ha":531,"o":"m 189 554 l 189 321 q 208 316 265 316 q 340 316 377 352 q 414 389 414 468 q 414 504 406 532 q 398 560 385 576 q 373 592 354 602 q 335 611 317 615 q 298 618 276 618 q 228 618 208 600 q 189 581 189 554 z m 104 523 q 104 555 101 572 q 98 589 86 598 q 75 608 61 610 q 47 612 17 614 q 13 618 13 630 q 13 643 17 647 q 117 645 146 645 q 168 645 220 648 q 272 652 283 652 q 336 652 377 640 q 418 628 442 611 q 466 593 481 570 q 497 546 502 526 q 507 506 507 486 q 507 458 500 432 q 493 405 476 378 q 458 350 432 329 q 406 309 364 295 q 322 282 270 282 q 220 282 189 292 l 189 122 q 189 101 191 87 q 192 72 198 62 q 204 52 210 47 q 216 41 230 38 q 244 34 256 33 q 268 32 291 31 q 295 26 295 14 q 295 2 291 -2 q 191 0 147 0 q 115 0 17 -2 q 13 2 13 14 q 13 26 17 31 q 37 32 48 33 q 59 34 70 37 q 82 41 87 46 q 92 52 97 62 q 101 73 103 87 q 104 101 104 122 z"},"|":{"x_min":0,"x_max":205,"ha":205,"o":"m 125 -232 l 81 -232 l 81 698 l 125 698 z"},"t":{"x_min":0,"x_max":316,"ha":316,"o":"m 43 429 l 89 429 q 89 467 88 492 q 88 517 87 525 q 87 532 86 537 q 86 542 86 545 q 86 549 91 552 q 96 555 107 558 q 119 562 124 564 q 130 566 139 571 q 148 576 155 579 q 161 582 164 582 q 172 582 172 573 q 168 533 168 468 l 168 429 l 288 429 q 296 429 296 423 l 296 403 q 296 397 288 394 q 281 390 272 390 l 168 390 l 168 137 q 168 88 175 66 q 182 45 201 45 q 247 45 283 73 q 298 72 301 56 q 272 24 237 7 q 201 -10 166 -10 q 89 -10 89 89 l 89 390 l 30 390 q 25 390 25 396 l 25 409 q 25 417 29 423 q 34 429 43 429 z"},"M":{"x_min":0,"x_max":839,"ha":839,"o":"m 663 116 l 637 534 l 635 534 l 410 5 q 405 -6 396 -6 q 385 -6 381 5 l 174 524 l 172 524 l 134 123 q 129 76 142 55 q 154 34 200 31 q 205 26 205 14 q 205 2 200 -2 q 141 0 106 0 q 80 0 20 -2 q 16 2 16 14 q 16 26 20 31 q 61 34 75 54 q 90 73 95 121 l 135 533 q 137 554 137 565 q 138 577 135 586 q 132 596 129 600 q 126 604 116 608 q 106 611 97 612 q 87 613 67 614 q 62 618 62 630 q 62 643 67 647 l 212 645 l 417 137 q 423 124 425 124 q 428 124 434 138 l 646 645 l 777 647 q 781 643 781 630 q 781 618 777 614 q 751 612 737 609 q 723 605 716 597 q 708 589 708 576 q 708 562 708 542 l 738 121 q 740 90 741 85 q 742 74 746 62 q 750 50 753 46 q 757 42 766 37 q 776 33 786 32 q 796 32 815 31 q 819 26 819 14 q 819 2 815 -2 q 749 0 706 0 q 693 0 599 -2 q 595 2 595 14 q 595 26 599 31 q 614 31 621 32 q 628 32 637 34 q 646 36 649 38 q 652 39 657 44 q 661 49 662 54 q 663 59 664 69 q 665 80 664 89 q 664 99 663 116 z"},"g":{"x_min":0,"x_max":500,"ha":500,"o":"m 319 279 q 319 341 294 375 q 269 408 222 408 q 142 408 142 302 q 142 279 144 263 q 145 246 151 227 q 156 208 166 196 q 175 184 193 175 q 210 167 235 167 q 250 167 264 172 q 277 176 291 188 q 304 199 311 222 q 319 246 319 279 z m 132 -10 q 112 -34 107 -54 q 101 -74 101 -104 q 101 -128 115 -147 q 128 -167 148 -178 q 167 -189 187 -195 q 207 -201 221 -201 q 268 -201 312 -189 q 355 -177 386 -151 q 417 -125 417 -91 q 417 -71 406 -58 q 396 -45 366 -29 q 347 -18 319 -15 q 292 -12 245 -12 q 240 -12 215 -14 q 189 -15 172 -15 q 152 -15 132 -10 z m 444 387 q 436 387 427 393 q 419 398 416 405 q 408 417 396 417 q 387 417 374 409 q 361 401 356 393 q 378 370 389 346 q 399 323 399 289 q 399 219 349 177 q 300 136 230 136 q 175 136 139 157 q 121 132 121 99 q 121 70 140 56 q 160 42 185 42 q 187 42 191 42 q 195 42 202 43 q 209 43 215 44 q 255 49 282 49 q 389 49 428 16 q 472 -21 472 -65 q 472 -104 447 -137 q 422 -170 382 -192 q 342 -214 292 -226 q 242 -238 191 -238 q 160 -238 133 -232 q 106 -226 83 -214 q 60 -201 46 -178 q 32 -155 32 -124 q 32 -91 53 -59 q 74 -26 114 -3 q 93 7 81 28 q 68 48 68 74 q 68 101 80 129 q 92 157 112 175 q 87 199 73 224 q 60 250 60 287 q 60 332 84 367 q 108 402 147 420 q 186 439 231 439 q 292 439 335 411 q 353 435 383 448 q 413 462 435 462 q 455 462 468 451 q 481 441 481 425 q 481 410 469 399 q 458 387 444 387 z"},"j":{"x_min":0,"x_max":272,"ha":272,"o":"m 99 599 q 99 617 116 632 q 133 647 151 647 q 170 647 185 630 q 199 614 199 595 q 199 579 183 563 q 167 547 147 547 q 129 547 114 563 q 99 580 99 599 z m 113 317 q 113 339 111 351 q 108 363 100 370 q 92 378 81 380 q 70 383 48 385 q 46 390 45 399 q 44 408 46 413 q 142 425 183 442 q 196 442 196 435 q 192 371 192 321 l 192 110 q 192 18 183 -43 q 173 -104 158 -137 q 142 -169 117 -189 q 76 -223 7 -223 q -11 -223 -29 -211 q -48 -200 -48 -180 q -48 -167 -37 -155 q -25 -142 -16 -142 q -11 -142 -6 -144 q 0 -145 3 -146 q 6 -148 11 -151 q 15 -155 17 -157 q 19 -159 22 -163 l 28 -168 q 39 -179 59 -179 q 71 -179 80 -170 q 89 -161 95 -142 q 101 -123 105 -102 q 108 -80 110 -48 q 112 -16 112 11 q 113 38 113 76 z"},"i":{"x_min":0,"x_max":271,"ha":271,"o":"m 90 599 q 90 617 107 632 q 124 647 142 647 q 162 647 176 631 q 190 614 190 595 q 190 579 174 563 q 158 547 138 547 q 120 547 105 563 q 90 580 90 599 z m 181 122 q 181 101 182 87 q 183 73 186 62 q 190 52 194 47 q 198 42 207 38 q 217 34 226 33 q 235 32 253 31 q 257 26 257 14 q 257 2 253 -2 q 167 0 142 0 q 114 0 30 -2 q 25 2 25 14 q 25 26 30 31 q 48 32 57 33 q 65 35 75 38 q 85 42 89 47 q 93 52 97 63 q 101 73 101 87 q 102 101 102 122 l 102 317 q 102 339 100 351 q 98 363 90 370 q 82 378 71 380 q 60 383 37 385 q 36 390 35 399 q 34 408 35 413 q 130 425 172 442 q 185 442 185 435 q 181 371 181 321 z"},"y":{"x_min":0,"x_max":515,"ha":515,"o":"m 204 -160 q 164 -232 107 -232 q 87 -232 73 -221 q 60 -210 60 -195 q 60 -182 72 -167 q 84 -152 104 -152 q 109 -152 117 -153 q 125 -155 133 -155 q 167 -155 183 -126 q 207 -78 222 -34 q 229 -16 223 12 q 217 38 208 60 l 95 323 q 74 371 62 383 q 49 395 16 398 q 12 402 12 415 q 12 427 16 431 q 56 429 97 429 q 136 429 210 431 q 214 427 214 415 q 214 402 210 398 q 188 396 177 392 q 166 389 164 380 q 163 372 165 364 q 167 355 175 338 q 176 335 177 333 l 266 125 q 278 97 290 124 l 389 353 q 393 362 394 369 q 394 375 390 380 q 387 385 383 388 q 378 391 371 393 q 363 395 357 396 q 350 397 341 398 q 336 402 336 415 q 336 427 341 431 q 415 429 432 429 q 453 429 503 431 q 507 427 507 415 q 507 402 503 398 q 477 396 456 377 q 434 358 422 334 q 365 214 245 -74 q 225 -124 204 -160 z"},"@":{"x_min":0,"x_max":895,"ha":895,"o":"m 569 316 q 569 344 550 361 q 532 379 504 379 q 487 379 460 369 q 434 359 414 339 q 346 271 346 162 q 346 70 424 70 q 450 70 483 107 q 515 145 539 200 q 569 270 569 316 z m 594 62 q 634 62 663 72 q 692 82 715 106 q 737 130 748 172 q 759 214 759 275 q 759 334 740 385 q 720 437 689 472 q 658 507 619 532 q 579 557 538 568 q 498 580 459 580 q 412 580 367 568 q 322 556 281 529 q 239 502 208 463 q 177 424 158 367 q 139 310 139 241 q 139 208 144 174 q 149 140 160 103 q 172 66 189 34 q 207 1 234 -28 q 261 -58 294 -79 q 328 -100 374 -113 q 419 -125 473 -125 q 591 -125 674 -59 l 687 -77 q 634 -118 583 -138 q 532 -158 454 -158 q 366 -158 292 -128 q 217 -99 167 -47 q 116 4 88 74 q 59 144 59 223 q 59 302 92 374 q 125 446 179 498 q 234 550 310 580 q 386 611 469 611 q 548 611 617 586 q 687 561 735 517 q 783 473 811 412 q 839 352 839 282 q 839 246 830 212 q 821 177 800 143 q 778 109 746 84 q 714 59 664 43 q 614 27 551 27 q 531 27 523 40 q 515 52 515 68 q 515 84 530 131 l 528 132 q 497 80 461 54 q 425 29 395 29 q 360 29 334 42 q 309 56 296 76 q 284 97 278 116 q 273 135 273 153 q 273 205 294 253 q 316 302 350 335 q 383 369 425 390 q 466 410 506 410 q 531 410 553 398 q 576 386 583 367 l 588 391 l 641 404 l 656 399 l 596 141 q 583 81 583 74 q 583 68 587 65 q 591 62 594 62 z"},"p":{"x_min":0,"x_max":519,"ha":519,"o":"m 175 331 q 166 320 162 311 q 159 302 159 287 l 159 105 q 159 79 163 69 q 167 59 183 45 q 195 34 216 29 q 237 24 254 24 q 294 24 323 41 q 352 58 367 86 q 382 114 388 144 q 395 174 395 208 q 395 291 360 342 q 325 393 276 393 q 254 393 225 375 q 195 356 175 331 z m 159 368 q 159 363 162 362 q 165 361 167 364 q 197 398 233 419 q 270 439 304 439 q 354 439 395 410 q 436 381 458 334 q 481 288 481 235 q 481 118 407 46 q 349 -10 260 -10 q 211 -10 173 5 q 165 9 162 8 q 159 7 159 -2 l 159 -110 q 159 -132 160 -145 q 161 -159 165 -169 q 169 -180 173 -185 q 178 -190 189 -194 q 200 -198 210 -199 q 221 -200 241 -201 q 246 -206 246 -218 q 246 -229 241 -234 q 155 -232 120 -232 q 92 -232 8 -234 q 3 -229 3 -218 q 3 -206 8 -201 q 34 -200 45 -198 q 57 -195 66 -186 q 76 -176 78 -159 q 80 -142 80 -110 l 80 317 q 80 339 78 351 q 76 363 67 371 q 59 378 49 380 q 38 383 15 385 q 14 390 13 399 q 12 408 13 413 q 93 423 139 442 q 147 442 151 434 q 159 417 159 368 z"},"X":{"x_min":0,"x_max":660,"ha":660,"o":"m 538 102 q 570 59 588 46 q 607 33 639 31 q 644 26 644 14 q 645 2 640 -2 q 581 0 538 0 q 504 0 424 -2 q 419 2 419 14 q 419 26 424 31 q 464 33 467 44 q 470 55 447 85 l 324 261 q 317 272 310 272 q 306 272 295 258 l 163 73 q 154 61 152 53 q 150 45 157 40 q 164 36 174 34 q 184 32 202 31 q 207 26 207 14 q 207 2 202 -2 q 122 0 97 0 q 66 0 7 -2 q 2 2 2 14 q 2 26 7 31 q 43 34 69 47 q 94 61 118 93 l 266 291 q 276 304 276 314 q 276 325 262 344 l 120 547 q 90 589 71 600 q 52 611 18 614 q 14 618 13 630 q 13 643 17 647 q 77 645 119 645 q 153 645 233 647 q 237 643 237 630 q 237 618 233 614 q 193 612 190 601 q 187 589 209 560 l 320 396 q 328 385 332 385 q 339 385 348 397 l 471 572 q 480 584 481 592 q 483 600 477 604 q 471 608 461 611 q 451 613 432 614 q 428 618 428 630 q 428 643 432 647 q 512 645 537 645 q 567 645 627 647 q 631 643 631 630 q 631 618 627 614 q 591 610 566 597 q 541 584 516 552 l 379 375 q 369 363 369 345 q 369 333 385 312 z"},"*":{"x_min":0,"x_max":369,"ha":369,"o":"m 168 547 q 150 551 126 551 q 86 551 65 559 q 45 567 45 588 q 45 600 53 609 q 62 618 78 618 q 93 618 107 610 q 121 601 138 588 q 156 574 174 567 q 172 587 161 617 q 151 646 151 659 q 151 675 159 687 q 168 698 181 698 q 195 698 205 689 q 214 680 214 663 q 214 649 205 615 q 196 580 195 566 q 213 574 231 588 q 249 602 262 610 q 276 618 290 618 q 308 618 316 608 q 324 598 324 588 q 324 551 255 551 q 224 551 200 547 q 212 533 235 518 q 258 503 271 490 q 283 478 283 460 q 283 447 274 439 q 265 431 254 431 q 236 431 225 447 q 214 463 203 493 q 191 522 183 535 q 176 522 164 491 q 152 460 141 446 q 130 431 113 431 q 100 431 92 439 q 84 447 84 459 q 84 478 97 491 q 110 504 133 519 q 156 533 168 547 z"},"Y":{"x_min":0,"x_max":575,"ha":575,"o":"m 337 122 q 337 101 338 87 q 340 73 345 62 q 350 52 355 46 q 361 41 374 37 q 386 34 399 33 q 411 32 434 31 q 438 26 438 14 q 438 2 434 -2 q 334 0 295 0 q 252 0 155 -2 q 150 2 150 14 q 150 26 155 31 q 178 32 190 33 q 203 34 215 37 q 228 41 234 46 q 239 52 244 62 q 249 73 250 87 q 252 101 252 122 l 252 249 q 252 276 248 290 q 244 304 231 326 l 100 547 q 75 588 57 600 q 40 611 6 614 q 1 618 1 630 q 0 643 5 647 q 64 645 107 645 q 141 645 221 647 q 226 643 226 630 q 226 618 221 614 q 180 612 173 601 q 167 590 185 559 l 301 354 q 306 346 309 343 q 312 340 316 342 q 319 344 323 352 l 434 561 q 441 576 443 586 q 444 596 439 602 q 433 607 423 610 q 413 613 395 614 q 391 618 391 630 q 391 643 395 647 q 475 645 486 645 q 509 645 569 647 q 573 643 573 630 q 573 618 569 614 q 533 610 513 598 q 494 586 474 550 l 354 334 q 343 313 340 298 q 337 283 337 258 z"},"c":{"x_min":0,"x_max":428,"ha":428,"o":"m 398 91 q 374 51 346 28 q 319 5 293 -2 q 268 -10 235 -10 q 142 -10 90 50 q 37 109 37 208 q 37 259 55 304 q 73 348 103 377 q 132 406 168 423 q 205 439 242 439 q 313 439 354 413 q 395 386 395 344 q 395 323 380 312 q 364 300 346 300 q 312 300 308 336 q 306 352 303 362 q 300 373 293 384 q 286 395 272 400 q 258 406 237 406 q 187 406 155 358 q 123 311 123 230 q 123 144 162 92 q 200 39 257 39 q 326 39 377 105 q 393 103 398 91 z"},"/":{"x_min":0,"x_max":323,"ha":323,"o":"m 293 646 l 56 -59 l 15 -59 l 252 646 z"},"[":{"x_min":0,"x_max":356,"ha":356,"o":"m 108 -193 l 108 703 l 320 703 q 324 699 324 688 q 324 677 320 673 q 284 670 261 667 q 239 665 221 658 q 204 652 196 646 q 188 640 182 626 q 177 612 176 599 q 175 585 175 561 l 175 -50 q 175 -68 175 -79 q 176 -90 178 -103 q 181 -115 184 -121 q 188 -127 196 -135 q 203 -142 213 -146 q 223 -149 239 -153 q 255 -157 274 -159 q 292 -161 320 -163 q 324 -167 324 -178 q 324 -188 320 -193 z"},"6":{"x_min":0,"x_max":465,"ha":465,"o":"m 135 307 q 127 266 127 229 q 127 179 134 142 q 140 105 151 83 q 162 61 178 47 q 194 34 210 29 q 227 24 247 24 q 286 24 312 65 q 338 106 338 184 q 338 206 333 228 q 327 251 315 275 q 303 299 278 315 q 252 330 218 330 q 170 330 135 307 z m 145 343 q 192 365 239 365 q 288 365 324 352 q 361 339 381 316 q 402 292 411 264 q 421 236 421 202 q 421 168 410 132 q 399 97 378 64 q 356 31 319 10 q 282 -11 236 -11 q 218 -11 201 -9 q 184 -6 164 1 q 145 9 128 20 q 111 32 95 51 q 80 70 68 95 q 57 120 51 155 q 44 190 44 232 q 44 293 68 357 q 92 421 137 474 q 181 524 231 557 q 282 589 356 611 q 368 603 368 585 q 320 567 281 539 q 243 512 216 479 q 190 446 173 413 q 155 380 145 343 z"},"r":{"x_min":0,"x_max":372,"ha":372,"o":"m 179 358 q 179 353 181 351 q 183 349 187 356 q 207 390 236 415 q 266 439 298 439 q 327 439 342 424 q 358 408 358 391 q 358 372 344 356 q 329 341 311 341 q 302 341 295 345 q 288 349 279 359 l 270 370 q 263 377 249 377 q 237 377 203 328 q 179 292 179 261 l 179 122 q 179 101 180 87 q 181 73 185 63 q 189 52 194 47 q 198 42 209 38 q 220 35 230 33 q 241 32 261 31 q 266 26 266 14 q 266 2 261 -2 q 175 0 140 0 q 110 0 26 -2 q 21 2 21 14 q 21 26 26 31 q 52 32 64 35 q 76 37 86 47 q 95 57 98 73 q 100 90 100 122 l 100 317 q 100 339 98 351 q 96 363 87 371 q 79 378 69 380 q 58 383 35 385 q 34 390 33 399 q 32 408 33 413 q 113 423 159 442 q 167 442 171 434 q 179 417 179 358 z"},"2":{"x_min":0,"x_max":465,"ha":465,"o":"m 61 468 q 61 491 74 515 q 87 540 109 561 q 132 583 167 596 q 202 610 241 610 q 273 610 302 601 q 331 592 356 575 q 380 557 395 527 q 410 497 410 458 q 410 431 403 407 q 396 384 381 362 q 365 339 351 324 q 336 309 310 283 l 209 186 l 194 171 q 187 163 171 143 q 155 123 145 102 q 135 82 135 65 l 313 65 q 340 65 355 86 q 370 107 383 161 q 390 163 399 161 q 408 159 412 156 q 411 131 404 83 q 397 35 388 -2 q 342 0 310 0 l 135 0 l 52 -2 q 52 46 74 90 q 97 134 166 205 l 240 278 q 284 322 303 364 q 322 405 322 454 q 322 488 313 513 q 305 538 292 551 q 278 564 264 570 q 250 575 235 575 q 185 575 161 556 q 136 537 136 514 q 136 510 140 500 q 144 491 144 490 q 148 477 148 469 q 148 454 132 442 q 115 429 101 429 q 85 429 73 441 q 61 452 61 468 z"},"{":{"x_min":0,"x_max":277,"ha":277,"o":"m 178 552 l 186 386 q 189 324 163 294 q 137 265 81 249 l 81 245 q 136 222 163 188 q 189 154 186 95 l 178 -54 q 175 -114 199 -151 q 223 -188 258 -188 q 262 -192 262 -200 q 262 -208 258 -212 q 218 -212 190 -205 q 163 -197 143 -179 q 122 -161 113 -129 q 104 -97 106 -49 l 112 121 q 115 223 14 235 q 2 247 14 259 q 65 264 89 295 q 112 327 112 370 l 106 554 q 104 596 115 625 q 126 656 147 673 q 168 690 195 699 q 223 707 258 707 q 262 703 262 695 q 262 688 258 683 q 243 679 234 675 q 225 671 212 662 q 200 652 193 639 q 186 626 182 604 q 177 582 178 552 z"},"9":{"x_min":0,"x_max":465,"ha":465,"o":"m 336 292 q 344 333 344 370 q 344 420 338 457 q 331 494 320 516 q 310 539 293 552 q 277 565 261 570 q 245 575 224 575 q 185 575 159 534 q 133 493 133 415 q 133 394 138 371 q 144 348 156 324 q 168 300 193 284 q 218 269 253 269 q 301 269 336 292 z m 327 256 q 279 234 232 234 q 183 234 146 247 q 110 260 89 283 q 69 307 59 335 q 50 363 50 397 q 50 424 56 452 q 63 480 78 509 q 92 538 113 560 q 134 582 166 596 q 197 610 235 610 q 261 610 285 604 q 309 599 335 583 q 362 566 382 541 q 401 515 414 470 q 427 425 427 367 q 427 306 403 241 q 379 178 334 125 q 290 75 240 42 q 189 9 115 -12 q 103 -4 103 14 q 151 32 190 60 q 229 87 255 120 q 281 153 299 186 q 316 219 327 256 z"}," ":{"x_min":0,"x_max":250,"ha":250,"o":""},"I":{"x_min":0,"x_max":297,"ha":297,"o":"m 191 122 q 191 101 192 87 q 194 73 198 62 q 203 52 208 46 q 213 41 225 37 q 236 34 247 33 q 258 32 278 31 q 282 26 282 14 q 282 2 278 -2 q 178 0 149 0 q 117 0 19 -2 q 15 2 15 14 q 15 26 19 31 q 39 32 50 33 q 61 34 72 37 q 83 41 89 46 q 94 52 99 62 q 103 73 104 87 q 106 101 106 122 l 106 523 q 106 555 103 572 q 100 589 88 598 q 77 608 63 610 q 49 612 19 614 q 15 618 15 630 q 15 643 19 647 q 119 645 148 645 q 180 645 278 647 q 282 643 282 630 q 282 618 278 614 q 248 612 234 610 q 220 608 209 598 q 197 589 194 572 q 191 555 191 523 z"},"H":{"x_min":0,"x_max":730,"ha":730,"o":"m 618 122 q 618 101 620 87 q 621 73 625 62 q 630 52 635 46 q 641 41 652 37 q 663 34 674 33 q 685 32 705 31 q 709 26 709 14 q 709 2 705 -2 q 605 0 576 0 q 543 0 446 -2 q 441 2 441 14 q 441 26 446 31 q 466 32 477 33 q 488 34 499 37 q 511 41 516 46 q 521 52 526 62 q 530 72 532 86 q 533 101 533 122 l 533 321 l 191 321 l 191 122 q 191 101 192 87 q 194 73 198 62 q 203 52 208 46 q 213 41 225 37 q 236 34 247 33 q 258 32 278 31 q 282 26 282 14 q 282 2 278 -2 q 178 0 149 0 q 117 0 19 -2 q 15 2 15 14 q 15 26 19 31 q 39 32 50 33 q 61 34 72 37 q 83 41 89 46 q 94 52 99 62 q 103 73 104 87 q 106 101 106 122 l 106 523 q 106 555 103 572 q 100 589 88 598 q 77 608 63 610 q 49 612 19 614 q 15 618 15 630 q 15 643 19 647 q 119 645 148 645 q 180 645 278 647 q 282 643 282 630 q 282 618 278 614 q 248 612 234 610 q 220 608 209 598 q 197 589 194 572 q 191 555 191 523 l 191 363 l 533 363 l 533 523 q 533 548 531 564 q 528 580 523 590 q 518 600 506 604 q 494 609 482 611 q 470 613 446 614 q 441 618 441 630 q 441 643 446 647 q 545 645 575 645 q 607 645 705 647 q 709 643 709 630 q 709 618 705 614 q 675 612 661 610 q 647 608 636 598 q 625 589 621 572 q 618 555 618 523 z"},"4":{"x_min":0,"x_max":465,"ha":465,"o":"m 271 507 q 194 401 80 219 l 271 219 z m 430 219 q 445 219 445 203 q 445 193 436 183 q 426 172 416 172 l 347 172 l 347 80 q 347 64 350 54 q 354 45 362 41 q 370 36 380 34 q 391 33 408 31 q 414 31 417 31 q 421 26 421 14 q 421 2 417 -2 q 353 0 308 0 q 254 0 190 -2 q 186 2 186 14 q 186 26 190 31 q 234 34 248 40 q 271 50 271 80 l 271 172 l 67 172 q 36 172 28 214 q 95 319 173 429 q 250 540 299 599 q 309 610 315 610 l 347 610 l 349 608 q 347 598 347 511 l 347 219 z"},"~":{"x_min":0,"x_max":449,"ha":449,"o":"m 26 209 q 36 260 73 298 q 109 337 154 337 q 186 337 229 305 q 274 272 301 272 q 316 272 334 278 q 352 284 371 300 q 390 315 400 339 q 412 339 417 333 q 406 295 389 270 q 372 244 354 232 q 335 221 322 217 q 309 213 297 213 q 265 213 221 246 q 178 278 148 278 q 121 278 90 258 q 60 237 43 205 q 34 205 26 209 z"},"D":{"x_min":0,"x_max":701,"ha":701,"o":"m 191 83 q 191 65 197 55 q 204 45 228 39 q 252 32 300 32 q 345 32 382 39 q 418 45 453 63 q 487 80 511 108 q 534 136 548 180 q 562 225 562 284 q 562 333 553 378 q 544 423 523 466 q 501 510 469 542 q 438 574 387 593 q 337 613 275 613 q 191 613 191 564 z m 148 645 q 165 645 221 646 q 278 647 313 647 q 384 647 448 620 q 512 593 558 547 q 604 502 631 439 q 658 377 658 308 q 658 257 647 214 q 637 170 618 139 q 600 107 574 83 q 548 58 519 42 q 491 27 458 17 q 424 6 394 2 q 363 -2 331 -2 q 271 -2 215 -1 q 159 0 149 0 q 117 0 19 -2 q 15 2 15 14 q 15 26 19 31 q 39 32 50 33 q 61 34 72 37 q 83 41 89 46 q 94 52 99 62 q 103 73 104 87 q 106 101 106 122 l 106 523 q 106 555 103 572 q 100 589 88 598 q 77 608 63 610 q 49 612 19 614 q 15 618 15 630 q 15 643 19 647 q 119 645 148 645 z"},"^":{"x_min":0,"x_max":518,"ha":518,"o":"m 259 593 l 157 346 l 112 346 l 239 650 l 281 650 l 407 346 l 362 346 z"},"0":{"x_min":0,"x_max":465,"ha":465,"o":"m 232 575 q 217 575 203 569 q 190 562 175 543 q 161 523 150 492 q 140 461 133 408 q 126 354 126 283 q 126 257 127 233 q 128 209 132 178 q 135 146 143 121 q 150 96 161 73 q 172 50 189 38 q 207 25 229 25 q 236 25 243 26 q 250 28 261 33 q 272 39 282 48 q 292 58 302 75 q 312 93 318 116 q 335 180 335 322 q 335 416 319 477 q 302 537 277 558 q 258 575 232 575 z m 228 -10 q 168 -10 126 32 q 85 73 62 144 q 39 214 39 294 q 39 352 50 403 q 60 454 78 491 q 97 528 121 555 q 146 583 174 596 q 202 610 232 610 q 305 610 354 545 q 422 455 422 303 q 422 236 409 181 q 396 126 376 91 q 356 57 330 33 q 303 10 278 0 q 252 -10 228 -10 z"},"F":{"x_min":0,"x_max":477,"ha":477,"o":"m 275 323 l 182 323 l 182 122 q 182 101 184 87 q 185 73 189 62 q 194 52 199 46 q 205 41 216 37 q 227 34 238 33 q 249 32 269 31 q 273 26 273 14 q 273 2 269 -2 q 169 0 140 0 q 107 0 10 -2 q 5 2 5 14 q 5 26 10 31 q 30 32 41 33 q 52 34 63 37 q 75 41 80 46 q 85 52 90 62 q 94 72 96 86 q 97 101 97 122 l 97 523 q 97 548 94 564 q 92 580 87 590 q 82 600 70 604 q 58 609 46 611 q 34 613 10 614 q 5 618 5 630 q 5 643 10 647 l 139 645 l 395 645 q 421 645 441 649 q 445 649 445 646 q 454 602 467 501 q 454 496 436 496 q 429 519 422 534 q 415 549 403 564 q 392 579 376 587 q 361 595 338 600 q 314 605 283 605 l 218 605 q 182 605 182 571 l 182 361 l 275 361 q 297 361 311 362 q 325 363 336 366 q 346 370 352 374 q 357 378 360 387 q 363 396 364 405 q 365 413 366 429 q 371 434 383 434 q 395 434 399 429 q 397 370 397 343 q 397 325 399 255 q 395 250 383 250 q 371 250 366 255 q 365 271 364 280 q 362 288 357 298 q 352 308 343 312 q 333 317 317 320 q 300 323 275 323 z"},"`":{"x_min":0,"x_max":392,"ha":392,"o":"m 178 699 l 248 573 q 254 562 254 549 q 254 545 249 542 q 245 538 239 538 q 231 538 210 558 l 96 667 l 98 678 q 129 701 163 701 q 170 701 178 699 z"},"k":{"x_min":0,"x_max":512,"ha":512,"o":"m 86 122 l 86 559 q 86 576 85 588 q 84 600 83 609 q 82 618 78 624 l 71 632 q 69 636 61 637 q 53 639 48 640 q 43 640 31 641 q 25 641 22 641 q 18 646 16 655 q 15 665 16 671 q 46 673 92 682 q 137 691 156 698 q 169 698 169 688 q 165 648 165 583 l 165 234 q 197 239 233 265 q 269 292 313 347 q 318 354 321 360 q 324 366 326 375 q 328 384 319 390 q 310 396 290 398 q 286 402 286 415 q 286 427 290 431 q 364 429 388 429 q 401 429 475 431 q 479 427 479 415 q 479 402 475 398 q 440 395 416 385 q 391 376 370 354 l 282 263 q 278 259 278 253 q 278 248 285 239 l 417 73 q 436 50 454 42 q 473 34 503 31 q 507 26 507 14 q 507 2 503 -2 q 443 0 421 0 q 399 0 359 -2 q 356 -2 355 3 q 350 24 313 73 l 240 171 q 224 193 208 204 q 195 208 165 209 l 165 122 q 165 97 167 81 q 168 65 171 55 q 174 45 181 41 q 188 36 196 34 q 203 32 217 31 q 221 26 221 14 q 221 2 217 -2 q 131 0 126 0 q 103 0 19 -2 q 15 2 15 14 q 15 26 19 31 q 35 32 44 33 q 52 34 61 38 q 70 42 74 47 q 78 52 81 62 q 84 73 85 87 q 86 101 86 122 z"},"u":{"x_min":0,"x_max":531,"ha":531,"o":"m 217 -10 q 188 -10 166 -2 q 143 5 129 18 q 114 31 105 49 q 96 66 92 85 q 88 104 88 126 l 88 318 q 88 365 75 380 q 63 395 26 398 q 21 402 21 415 q 21 427 26 431 q 100 429 128 429 q 153 429 163 431 q 171 431 171 425 q 167 352 167 322 l 167 140 q 167 109 175 87 q 183 65 196 55 q 209 45 222 41 q 234 37 247 37 q 267 37 293 50 q 320 62 347 85 q 357 94 360 101 q 363 109 363 124 l 363 317 q 363 365 351 380 q 338 396 301 398 q 296 402 296 415 q 296 427 301 431 q 375 429 403 429 q 428 429 438 431 q 446 431 446 425 q 442 352 442 322 l 442 130 q 442 91 456 76 q 469 61 515 57 q 520 53 520 43 q 520 34 515 30 q 431 21 394 -10 q 383 -13 375 -10 q 364 26 364 49 q 364 52 362 53 q 360 54 357 53 q 354 52 352 50 q 278 -10 217 -10 z"},"]":{"x_min":0,"x_max":356,"ha":356,"o":"m 248 704 l 248 -192 l 36 -192 q 32 -188 32 -177 q 32 -167 36 -162 q 63 -160 82 -158 q 101 -156 116 -153 q 132 -149 142 -145 q 152 -142 160 -135 q 168 -127 172 -121 q 175 -115 178 -103 q 180 -90 181 -79 q 181 -68 181 -50 l 181 561 q 181 580 181 591 q 180 602 178 614 q 175 625 172 632 q 168 639 160 646 q 153 653 143 656 q 133 660 117 664 q 101 667 82 669 q 63 671 36 674 q 32 678 32 689 q 32 700 36 704 z"},"U":{"x_min":0,"x_max":661,"ha":661,"o":"m 172 523 l 172 269 q 172 238 173 218 q 174 197 179 169 q 184 142 194 120 q 206 98 223 81 q 276 31 342 31 q 377 31 405 39 q 433 47 452 60 q 471 73 485 93 q 499 113 507 133 q 514 153 519 179 q 523 206 525 228 q 526 250 526 277 l 526 523 q 526 536 526 545 q 525 555 523 563 q 521 572 521 578 q 520 584 515 589 q 511 594 509 597 q 506 600 499 603 q 491 605 487 607 q 483 608 472 610 q 461 611 455 612 q 449 612 434 614 q 430 618 430 630 q 430 643 434 647 q 534 645 550 645 q 554 645 652 647 q 656 643 656 630 q 656 618 652 614 q 640 612 635 612 q 630 611 621 610 q 612 608 609 607 q 605 605 599 603 q 593 600 591 597 q 589 594 585 589 q 581 584 580 578 q 579 572 577 563 q 576 555 575 545 q 575 536 575 523 l 575 295 q 575 238 569 194 q 562 150 545 111 q 527 72 499 46 q 471 20 426 5 q 381 -10 321 -10 q 291 -10 261 -4 q 232 1 200 18 q 167 35 143 61 q 119 87 103 132 q 87 177 87 236 l 87 523 q 87 555 84 572 q 81 589 70 598 q 60 607 48 610 q 36 612 10 614 q 5 618 5 630 q 5 643 10 647 q 109 645 129 645 q 167 645 264 647 q 269 643 269 630 q 269 618 264 614 q 242 613 230 612 q 218 611 206 607 q 194 604 189 599 q 184 593 179 583 q 174 572 173 558 q 172 544 172 523 z"},"o":{"x_min":0,"x_max":504,"ha":504,"o":"m 41 205 q 41 304 96 369 q 156 439 253 439 q 297 439 333 426 q 370 412 393 390 q 417 368 433 338 q 449 308 456 277 q 463 246 463 214 q 463 166 447 122 q 431 78 398 46 q 341 -10 251 -10 q 210 -10 175 3 q 140 15 115 36 q 91 58 74 85 q 57 113 49 144 q 41 174 41 205 z m 238 404 q 127 404 127 228 q 127 196 134 163 q 142 130 157 98 q 172 66 200 45 q 229 25 265 25 q 285 25 303 32 q 321 40 338 56 q 356 72 366 105 q 377 137 377 182 q 377 289 340 346 q 303 404 238 404 z"},"N":{"x_min":0,"x_max":699,"ha":699,"o":"m 556 512 q 556 532 555 546 q 553 560 551 571 q 549 582 544 588 q 538 595 533 600 q 528 604 517 607 q 505 609 496 611 q 487 612 469 614 q 465 618 465 630 q 465 643 469 647 q 569 645 580 645 q 594 645 692 647 q 696 643 696 630 q 696 618 692 614 q 662 611 648 608 q 634 604 623 594 q 611 583 608 565 q 605 546 605 512 l 605 21 q 605 7 599 -1 q 593 -10 582 -10 q 560 -10 542 14 l 193 455 q 167 488 159 488 q 154 488 152 478 q 151 467 151 439 l 151 133 q 151 109 152 94 q 153 79 158 67 q 163 56 168 50 q 173 44 185 40 q 196 36 207 34 q 217 33 238 31 q 242 26 242 14 q 242 2 238 -2 q 138 0 127 0 q 113 0 15 -2 q 11 2 11 14 q 11 26 15 31 q 35 33 46 34 q 57 36 69 41 q 80 45 85 51 q 90 57 95 68 q 100 80 101 95 q 102 110 102 133 l 102 550 q 97 572 75 592 q 53 612 23 614 q 19 618 19 630 q 19 643 23 647 l 158 645 l 501 203 l 516 184 l 528 167 l 537 157 q 541 152 544 150 q 546 148 549 148 q 554 148 555 155 q 556 162 556 178 z"},"+":{"x_min":0,"x_max":550,"ha":550,"o":"m 250 435 q 250 444 262 453 q 275 462 283 462 q 290 462 295 458 q 300 455 300 448 l 300 276 l 476 276 q 483 276 487 271 q 490 266 490 259 q 490 250 481 238 q 472 226 463 226 l 300 226 l 300 66 q 300 57 289 49 q 278 41 266 41 q 260 41 255 45 q 250 50 250 56 l 250 226 l 75 226 q 69 226 64 231 q 60 236 60 242 q 60 254 68 265 q 76 276 85 276 l 250 276 z"},"G":{"x_min":0,"x_max":695,"ha":695,"o":"m 377 658 q 418 658 454 651 q 489 644 510 635 q 530 627 553 620 q 576 613 595 613 q 604 523 617 459 l 583 453 q 575 481 564 504 q 554 526 536 549 q 518 572 495 587 q 473 602 439 612 q 405 621 363 621 q 260 621 192 539 q 123 457 123 327 q 123 294 131 259 q 139 224 154 190 q 169 157 192 127 q 216 97 245 75 q 274 52 313 39 q 352 26 395 26 q 437 26 476 38 q 515 51 540 74 l 540 223 q 540 251 522 259 q 505 267 458 271 q 454 275 454 289 q 454 303 458 307 q 552 305 582 305 q 611 305 671 307 q 675 303 675 289 q 675 275 671 271 q 647 269 636 258 q 625 248 625 223 l 625 111 q 625 96 641 83 q 533 -10 372 -10 q 298 -10 234 16 q 170 41 126 84 q 83 127 57 185 q 32 243 32 307 q 32 361 46 409 q 60 458 83 496 q 107 534 140 565 q 173 596 211 616 q 250 637 292 647 q 334 658 377 658 z"},"q":{"x_min":0,"x_max":503,"ha":503,"o":"m 322 368 q 289 405 243 405 q 185 405 153 356 q 121 308 121 227 q 121 184 131 149 q 140 115 155 94 q 170 73 190 59 q 210 45 229 40 q 248 34 266 34 q 307 34 332 47 q 341 52 344 58 q 346 63 346 77 l 346 307 q 346 326 341 339 q 336 352 322 368 z m 346 -111 l 346 0 q 346 15 341 16 q 336 16 319 5 q 292 -10 242 -10 q 201 -10 166 4 q 130 18 107 40 q 83 62 67 91 q 50 119 43 149 q 35 178 35 207 q 35 306 95 373 q 156 439 247 439 q 314 439 360 410 q 369 404 374 406 q 379 409 389 423 q 403 442 410 442 q 425 442 425 417 l 425 -111 q 425 -137 427 -152 q 429 -167 432 -177 q 436 -188 446 -192 q 456 -197 466 -198 q 476 -200 497 -201 q 501 -206 501 -218 q 501 -229 497 -234 q 411 -232 386 -232 q 358 -232 274 -234 q 270 -229 270 -218 q 270 -206 274 -201 q 295 -200 305 -198 q 315 -197 325 -192 q 335 -188 339 -177 q 342 -167 344 -152 q 346 -137 346 -111 z"},"d":{"x_min":0,"x_max":506,"ha":506,"o":"m 345 124 l 345 314 q 345 336 342 346 q 339 356 328 368 q 297 404 247 404 q 187 404 154 354 q 125 314 125 221 q 125 133 158 85 q 190 37 235 37 q 273 37 329 85 q 339 94 342 101 q 345 109 345 124 z m 334 50 q 294 19 267 5 q 237 -10 209 -10 q 130 -10 84 49 q 39 108 39 203 q 39 310 108 379 q 140 409 175 424 q 210 439 258 439 q 272 439 291 435 q 310 431 322 426 q 335 422 336 422 q 345 422 345 431 l 345 559 q 345 579 344 592 q 344 605 340 615 q 337 624 334 629 q 332 633 323 636 q 315 639 310 639 q 304 640 290 641 q 284 641 281 641 q 276 646 275 655 q 273 665 275 671 q 305 673 351 682 q 396 691 415 698 q 428 698 428 688 q 424 648 424 583 l 424 130 q 424 91 438 76 q 451 61 497 57 q 501 53 501 43 q 501 34 497 30 q 413 21 376 -10 q 365 -13 357 -10 q 346 25 346 49 q 346 52 344 53 q 342 54 339 53 q 336 52 334 50 z"},"1":{"x_min":0,"x_max":465,"ha":465,"o":"m 288 122 q 288 101 290 87 q 291 73 295 62 q 300 52 305 46 q 311 41 322 37 q 333 34 344 33 q 355 32 375 31 q 379 26 379 14 q 379 2 375 -2 q 275 0 253 0 q 211 0 114 -2 q 109 2 109 14 q 109 26 114 31 q 134 32 146 33 q 157 34 170 37 q 183 41 189 46 q 195 52 201 62 q 207 72 209 87 q 211 101 211 122 l 211 448 q 211 477 207 491 q 203 506 191 506 q 164 506 104 481 q 91 489 89 508 q 229 573 285 608 q 291 608 291 603 q 288 577 288 469 z"},"5":{"x_min":0,"x_max":465,"ha":465,"o":"m 319 189 q 319 267 287 304 q 255 341 203 341 q 140 341 76 317 l 110 605 q 168 600 218 600 q 277 600 382 611 l 389 607 l 373 539 q 312 533 268 533 q 234 533 151 542 l 131 375 q 173 391 229 391 q 283 391 325 365 q 366 339 387 298 q 408 256 408 207 q 408 112 348 51 q 289 -11 196 -11 q 167 -11 134 -1 q 102 9 78 27 q 54 44 54 64 q 54 79 66 90 q 77 101 92 101 q 118 101 143 69 q 145 66 149 60 q 154 54 156 51 l 163 43 q 168 38 172 35 l 182 29 q 188 26 194 25 q 201 24 209 24 q 254 24 287 71 q 319 119 319 189 z"}}}
